<?xml version="1.0" standalone="no"?>
<!DOCTYPE svg PUBLIC "-//W3C//DTD SVG 20010904//EN"
 "http://www.w3.org/TR/2001/REC-SVG-20010904/DTD/svg10.dtd">
<svg version="1.0" xmlns="http://www.w3.org/2000/svg"
 width="260.000000pt" height="260.000000pt" viewBox="0 0 260.000000 260.000000"
 preserveAspectRatio="xMidYMid meet">
<metadata>
Created by potrace 1.14, written by Peter Selinger 2001-2017
</metadata>
<g transform="translate(0.000000,260.000000) scale(0.100000,-0.100000)"
fill="#000000" stroke="none">
<path d="M1530 2063 c-30 -6 -68 -14 -85 -16 -26 -4 -76 -13 -230 -42 -16 -3
-52 -10 -80 -15 -27 -5 -61 -11 -75 -14 -14 -3 -41 -7 -60 -10 -19 -3 -71 -13
-115 -22 -44 -8 -89 -17 -100 -19 -170 -26 -270 -51 -298 -75 -12 -10 -32 -27
-45 -37 -31 -25 -37 -76 -17 -149 31 -110 36 -129 39 -139 11 -39 29 -102 32
-115 21 -95 205 -716 217 -733 20 -30 79 -59 109 -53 13 2 57 12 98 21 41 9
86 19 100 21 14 3 45 10 69 15 24 5 45 8 47 6 2 -2 8 -32 13 -68 10 -68 28
-119 43 -119 25 0 348 73 383 86 111 43 196 88 193 103 -4 22 -61 17 -188 -15
-81 -21 -86 -20 -100 30 -7 25 -10 49 -6 54 3 5 25 13 48 17 61 11 63 11 234
50 221 49 283 90 271 178 -7 52 -6 48 -62 237 -26 85 -59 200 -75 255 -16 55
-35 120 -43 145 -8 25 -36 119 -63 210 -67 231 -90 250 -254 213z"/>
</g>
</svg>
