{
  "accessors": [
    {
      "bufferView": 2,
      "componentType": 5126,
      "count": 37927,
      "max": [
        596.77252197265625,
        628.31292724609375,
        555.20269775390625
      ],
      "min": [
        -594.7249755859375,
        -546.96112060546875,
        -946.43121337890625
      ],
      "type": "VEC3"
    },
    {
      "bufferView": 2,
      "byteOffset": 455124,
      "componentType": 5126,
      "count": 37927,
      "max": [
        1,
        0.99999874830245972,
        0.99999278783798218
      ],
      "min": [
        -1,
        -1,
        -1
      ],
      "type": "VEC3"
    },
    {
      "bufferView": 3,
      "componentType": 5126,
      "count": 37927,
      "max": [
        0.99999940395355225,
        0.99999785423278809,
        0.99999982118606567,
        1
      ],
      "min": [
        -1,
        -0.99999892711639404,
        -0.99999964237213135,
        -1
      ],
      "type": "VEC4"
    },
    {
      "bufferView": 1,
      "componentType": 5126,
      "count": 37927,
      "max": [
        0.99000000953674316,
        0.99000000953674316
      ],
      "min": [
        0.0099999997764825821,
        0.020337000489234924
      ],
      "type": "VEC2"
    },
    {
      "bufferView": 0,
      "componentType": 5125,
      "count": 189150,
      "max": [
        37926
      ],
      "min": [
        0
      ],
      "type": "SCALAR"
    }
  ],
  "asset": {
    "extras": {
      "author": "BunnyLoveSu (https://sketchfab.com/bunnylovesu)",
      "license": "CC-BY-4.0 (http://creativecommons.org/licenses/by/4.0/)",
      "source": "https://sketchfab.com/3d-models/blitzcrank-bust-d41e4e5a19874330bea7eae940d7d654",
      "title": "Blitzcrank Bust"
    },
    "generator": "Sketchfab-7.7.0",
    "version": "2.0"
  },
  "bufferViews": [
    {
      "buffer": 0,
      "byteLength": 756600,
      "byteOffset": 0,
      "name": "floatBufferViews",
      "target": 34963
    },
    {
      "buffer": 0,
      "byteLength": 303416,
      "byteOffset": 756600,
      "byteStride": 8,
      "name": "floatBufferViews",
      "target": 34962
    },
    {
      "buffer": 0,
      "byteLength": 910248,
      "byteOffset": 1060016,
      "byteStride": 12,
      "name": "floatBufferViews",
      "target": 34962
    },
    {
      "buffer": 0,
      "byteLength": 606832,
      "byteOffset": 1970264,
      "byteStride": 16,
      "name": "floatBufferViews",
      "target": 34962
    }
  ],
  "buffers": [
    {
      "byteLength": 2577096,
      "uri": "scene.bin"
    }
  ],
  "images": [
    {
      "uri": "textures/Default_baseColor.png"
    },
    {
      "uri": "textures/Default_metallicRoughness.png"
    },
    {
      "uri": "textures/Default_normal.png"
    }
  ],
  "materials": [
    {
      "doubleSided": false,
      "name": "Default",
      "normalTexture": {
        "index": 2,
        "scale": 1,
        "texCoord": 0
      },
      "occlusionTexture": {
        "index": 1,
        "strength": 1,
        "texCoord": 0
      },
      "pbrMetallicRoughness": {
        "baseColorFactor": [
          1,
          1,
          1,
          1
        ],
        "baseColorTexture": {
          "index": 0,
          "texCoord": 0
        },
        "metallicFactor": 1,
        "metallicRoughnessTexture": {
          "index": 1,
          "texCoord": 0
        },
        "roughnessFactor": 1
      }
    }
  ],
  "meshes": [
    {
      "primitives": [
        {
          "attributes": {
            "NORMAL": 1,
            "POSITION": 0,
            "TANGENT": 2,
            "TEXCOORD_0": 3
          },
          "indices": 4,
          "material": 0,
          "mode": 4
        }
      ]
    }
  ],
  "nodes": [
    {
      "children": [
        1
      ],
      "name": "RootNode (gltf orientation matrix)",
      "rotation": [
        -0.70710678118654746,
        -0,
        -0,
        0.70710678118654757
      ]
    },
    {
      "children": [
        2
      ],
      "name": "RootNode (model correction matrix)"
    },
    {
      "children": [
        3
      ],
      "name": "Blitzy.obj.cleaner.materialmerger.gles"
    },
    {
      "mesh": 0,
      "name": ""
    }
  ],
  "samplers": [
    {
      "magFilter": 9729,
      "minFilter": 9987,
      "wrapS": 10497,
      "wrapT": 10497
    }
  ],
  "scene": 0,
  "scenes": [
    {
      "name": "OSG_Scene",
      "nodes": [
        0
      ]
    }
  ],
  "textures": [
    {
      "sampler": 0,
      "source": 0
    },
    {
      "sampler": 0,
      "source": 1
    },
    {
      "sampler": 0,
      "source": 2
    }
  ]
}

